<svg width="666" height="569" viewBox="0 0 666 569" fill="none" xmlns="http://www.w3.org/2000/svg">
<path d="M593.38 190.12V159.86H580.35V193.9L528.55 207.89V187.01L498.9 207.89H496.2L489.3 122.15H477.35L470.45 207.89H465.18L455.46 87.07H438.62L429.47 200.81L417.25 49H395.11L382.32 207.89H379.68L372.78 122.15H360.83L353.93 207.89L350.37 261.34L604.1 261.09V187.01L593.38 190.12Z" fill="#969696"/>
<mask id="mask0_1456_13044" style="mask-type:luminance" maskUnits="userSpaceOnUse" x="353" y="49" width="180" height="159">
<path d="M532.09 207.89H528.55V187.01L498.9 207.89H496.2L489.3 122.15H477.35L470.45 207.89H465.18L455.46 87.07H438.62L429.47 200.81L417.25 49H395.11L382.32 207.89H379.68L372.78 122.15H360.83L353.93 207.89H532.09Z" fill="white"/>
</mask>
<g mask="url(#mask0_1456_13044)">
<path d="M382.67 64.99C382.67 64.99 398.49 75.19 430.31 64.99" stroke="#DAD6BD" stroke-width="3" stroke-miterlimit="10"/>
<path d="M382.67 85.12C382.67 85.12 398.49 95.32 430.31 85.12" stroke="#DAD6BD" stroke-width="3" stroke-miterlimit="10"/>
<path d="M382.67 105.25C382.67 105.25 398.49 115.45 430.31 105.25" stroke="#DAD6BD" stroke-width="3" stroke-miterlimit="10"/>
<path d="M430.88 99.61C430.88 99.61 442.41 109.81 465.6 99.61" stroke="#DAD6BD" stroke-width="3" stroke-miterlimit="10"/>
<path d="M430.88 119.75C430.88 119.75 442.41 129.95 465.6 119.75" stroke="#DAD6BD" stroke-width="3" stroke-miterlimit="10"/>
<path d="M430.88 139.88C430.88 139.88 442.41 150.08 465.6 139.88" stroke="#DAD6BD" stroke-width="3" stroke-miterlimit="10"/>
<path d="M351.4 130.79C351.4 130.79 362.21 137.79 383.95 130.79" stroke="#DAD6BD" stroke-width="3" stroke-miterlimit="10"/>
<path d="M351.4 144.54C351.4 144.54 362.21 151.54 383.95 144.54" stroke="#DAD6BD" stroke-width="3" stroke-miterlimit="10"/>
<path d="M351.4 158.29C351.4 158.29 362.21 165.29 383.95 158.29" stroke="#DAD6BD" stroke-width="3" stroke-miterlimit="10"/>
<path d="M466.51 130.79C466.51 130.79 477.32 137.79 499.06 130.79" stroke="#DAD6BD" stroke-width="3" stroke-miterlimit="10"/>
<path d="M466.51 144.54C466.51 144.54 477.32 151.54 499.06 144.54" stroke="#DAD6BD" stroke-width="3" stroke-miterlimit="10"/>
<path d="M466.51 158.29C466.51 158.29 477.32 165.29 499.06 158.29" stroke="#DAD6BD" stroke-width="3" stroke-miterlimit="10"/>
</g>
<path d="M590.49 230.65H582.19V238.95H590.49V230.65Z" fill="#3B455E"/>
<path d="M570.86 230.65H562.56V238.95H570.86V230.65Z" fill="#3B455E"/>
<path d="M551.23 230.65H542.93V238.95H551.23V230.65Z" fill="#3B455E"/>
<path d="M531.6 230.65H523.3V238.95H531.6V230.65Z" fill="#3B455E"/>
<path d="M511.97 230.65H503.67V238.95H511.97V230.65Z" fill="#3B455E"/>
<path d="M298.26 256.84L352.6 256.54C352.6 256.54 318.19 245.77 316.35 143.81H265.65C263.84 245.81 229.43 256.54 229.43 256.54L283.77 256.84V256.92H291.01H298.26V256.84Z" fill="#A8A8A8"/>
<path d="M300.71 181.43C297.708 179.916 294.392 179.128 291.03 179.128C287.668 179.128 284.352 179.916 281.35 181.43C281.211 181.5 281.089 181.598 280.989 181.717C280.89 181.836 280.816 181.975 280.772 182.124C280.728 182.273 280.715 182.429 280.733 182.583C280.752 182.737 280.802 182.886 280.88 183.02L290.05 198.92C290.148 199.099 290.293 199.249 290.469 199.353C290.645 199.458 290.845 199.513 291.05 199.513C291.254 199.513 291.455 199.458 291.631 199.353C291.807 199.249 291.952 199.099 292.05 198.92L301.24 183.03C301.316 182.891 301.363 182.738 301.377 182.581C301.392 182.423 301.374 182.265 301.324 182.114C301.274 181.964 301.194 181.826 301.088 181.708C300.983 181.59 300.854 181.496 300.71 181.43Z" fill="#EAE2B7"/>
<path d="M313.72 205.69H295.35C295.149 205.688 294.951 205.739 294.776 205.838C294.6 205.937 294.455 206.081 294.353 206.254C294.252 206.428 294.198 206.626 294.197 206.827C294.197 207.028 294.249 207.226 294.35 207.4L303.52 223.3C303.598 223.434 303.702 223.55 303.826 223.642C303.95 223.735 304.092 223.801 304.242 223.837C304.392 223.874 304.549 223.879 304.701 223.854C304.854 223.829 305 223.773 305.13 223.69C307.949 221.847 310.295 219.367 311.98 216.451C313.665 213.534 314.641 210.263 314.83 206.9C314.84 206.747 314.818 206.594 314.767 206.449C314.716 206.305 314.636 206.172 314.532 206.059C314.429 205.946 314.303 205.855 314.164 205.792C314.024 205.728 313.873 205.694 313.72 205.69Z" fill="#EAE2B7"/>
<path d="M267.17 207.23C267.355 210.59 268.326 213.86 270.005 216.777C271.685 219.693 274.026 222.174 276.84 224.02C276.97 224.105 277.116 224.163 277.27 224.19C277.423 224.217 277.58 224.212 277.731 224.177C277.883 224.141 278.025 224.075 278.151 223.983C278.276 223.891 278.381 223.774 278.46 223.64L287.65 207.74C287.751 207.566 287.803 207.368 287.803 207.167C287.802 206.966 287.748 206.768 287.647 206.594C287.545 206.421 287.4 206.277 287.225 206.178C287.049 206.079 286.851 206.028 286.65 206.03H268.35C268.192 206.024 268.034 206.051 267.887 206.11C267.74 206.169 267.607 206.257 267.496 206.37C267.385 206.483 267.298 206.618 267.242 206.766C267.186 206.914 267.162 207.072 267.17 207.23Z" fill="#EAE2B7"/>
<path d="M291.01 206.03C292.308 206.03 293.36 204.978 293.36 203.68C293.36 202.382 292.308 201.33 291.01 201.33C289.712 201.33 288.66 202.382 288.66 203.68C288.66 204.978 289.712 206.03 291.01 206.03Z" fill="#EAE2B7"/>
<path d="M323.27 139.06H259.96C258.049 139.06 256.5 140.609 256.5 142.52V145.26C256.5 147.171 258.049 148.72 259.96 148.72H323.27C325.181 148.72 326.73 147.171 326.73 145.26V142.52C326.73 140.609 325.181 139.06 323.27 139.06Z" fill="#969696"/>
<path d="M356.24 251.38H227C225.089 251.38 223.54 252.929 223.54 254.84V257.58C223.54 259.491 225.089 261.04 227 261.04H356.24C358.151 261.04 359.7 259.491 359.7 257.58V254.84C359.7 252.929 358.151 251.38 356.24 251.38Z" fill="#969696"/>
<path d="M330.366 245.095L317.989 244.517L317.78 249.003L330.157 249.58L330.366 245.095Z" fill="#A8A8A8"/>
<path d="M460.916 235.4L338.058 234.671L337.942 254.151L460.8 254.88L460.916 235.4Z" fill="#2D314A"/>
<path d="M452.728 262.498C457.9 259.206 459.548 252.542 456.41 247.612C453.273 242.683 446.537 241.356 441.365 244.648C436.194 247.94 434.545 254.605 437.683 259.534C440.821 264.463 447.557 265.79 452.728 262.498Z" fill="#404452"/>
<path d="M361.062 261.952C366.233 258.66 367.882 251.995 364.744 247.066C361.606 242.137 354.87 240.809 349.699 244.101C344.527 247.393 342.879 254.058 346.017 258.987C349.155 263.916 355.891 265.244 361.062 261.952Z" fill="#404452"/>
<path d="M443.35 257.72C444.487 258.619 445.928 259.043 447.371 258.904C448.814 258.764 450.147 258.071 451.09 256.97C451.57 256.453 451.942 255.844 452.181 255.18C452.421 254.516 452.524 253.811 452.485 253.106C452.446 252.401 452.265 251.711 451.953 251.078C451.641 250.445 451.205 249.881 450.67 249.42C449.534 248.52 448.094 248.094 446.651 248.232C445.208 248.37 443.875 249.061 442.93 250.16C442.449 250.678 442.078 251.288 441.838 251.953C441.598 252.617 441.495 253.324 441.534 254.029C441.573 254.735 441.754 255.425 442.066 256.059C442.378 256.694 442.815 257.258 443.35 257.72Z" fill="#969696"/>
<path d="M351.72 257.17C352.856 258.07 354.296 258.496 355.739 258.358C357.182 258.22 358.515 257.529 359.46 256.43C359.941 255.912 360.312 255.302 360.552 254.637C360.791 253.973 360.895 253.266 360.856 252.561C360.816 251.855 360.636 251.165 360.324 250.531C360.012 249.896 359.575 249.332 359.04 248.87C357.904 247.97 356.464 247.544 355.021 247.682C353.578 247.82 352.245 248.511 351.3 249.61C350.819 250.128 350.448 250.738 350.208 251.403C349.968 252.067 349.865 252.774 349.904 253.479C349.943 254.185 350.124 254.875 350.436 255.509C350.748 256.144 351.185 256.708 351.72 257.17Z" fill="#969696"/>
<path opacity="0.2" d="M396.03 229.66L431.44 230.45C431.44 230.3 431.44 230.17 431.44 230.08C429.74 228.73 417.78 219.88 394.44 217.33L396.03 229.66Z" fill="#DFDFDF"/>
<path opacity="0.2" d="M391.49 217.06C376.93 215.93 365.19 220.61 360.73 222.4C360.465 222.491 360.236 222.662 360.073 222.89C359.91 223.117 359.821 223.39 359.82 223.67L361.65 228.84L361.74 228.9L391.74 229.57L391.49 217.06Z" fill="#DFDFDF"/>
<path d="M470.98 240.43C470.72 238.32 469.04 236.74 467.28 235.63C463.04 232.95 457.34 228.71 435.1 227.12C435.1 227.12 411.42 213.12 390.16 212.97C368.9 212.82 360.65 216.44 341.76 224.37C341.76 224.37 332.76 223.58 330.82 225.37C328.88 227.16 322.75 244.31 322.66 245.37C322.57 246.43 322.43 251.17 325.66 252.37C329.87 254 340.12 254.94 340.12 254.94H341.87C341.663 253.089 341.85 251.215 342.419 249.442C342.988 247.668 343.925 246.035 345.17 244.65C350.06 239.11 358.44 238.3 363.89 242.86C365.678 244.362 367.003 246.341 367.713 248.565C368.422 250.79 368.487 253.17 367.9 255.43L434.01 256.43C433.657 254.456 433.759 252.427 434.308 250.498C434.857 248.57 435.84 246.792 437.18 245.3C442.07 239.76 450.45 238.95 455.9 243.51C457.788 245.097 459.16 247.211 459.843 249.582C460.525 251.952 460.485 254.472 459.73 256.82H460.17C460.17 256.82 466.24 256.03 469.26 254.29C472.28 252.55 471.62 245.62 470.98 240.43ZM361.74 228.9L361.65 228.84L359.82 223.67C359.821 223.39 359.91 223.117 360.073 222.89C360.236 222.662 360.465 222.491 360.73 222.4C365.19 220.61 376.93 215.93 391.49 217.06L391.77 229.57L361.74 228.9ZM396.03 229.66L394.43 217.33C417.74 219.88 429.7 228.73 431.43 230.08C431.43 230.17 431.43 230.3 431.43 230.45L396.03 229.66Z" fill="#D62828"/>
<path d="M336.66 228.76L328.91 228.71C328.24 230.18 327.49 231.97 326.75 233.83L335.4 233.88C335.662 233.882 335.921 233.829 336.16 233.724C336.4 233.619 336.615 233.464 336.79 233.27L338.06 231.83C338.313 231.548 338.472 231.194 338.513 230.817C338.554 230.44 338.476 230.06 338.29 229.73C338.126 229.44 337.89 229.199 337.604 229.028C337.318 228.858 336.993 228.766 336.66 228.76Z" fill="white"/>
<path d="M470.98 240.43C470.72 238.33 469.04 236.75 467.28 235.64L467.02 235.47H463.19C462.838 235.459 462.49 235.554 462.193 235.744C461.896 235.933 461.663 236.208 461.524 236.532C461.386 236.857 461.349 237.215 461.417 237.561C461.486 237.907 461.658 238.223 461.91 238.47L463.86 240.56C464.029 240.738 464.232 240.881 464.457 240.979C464.682 241.077 464.924 241.128 465.17 241.13H471.06C471.04 240.86 471.01 240.64 470.98 240.43Z" fill="white"/>
<path d="M119.26 261.02H175.04V219.99H119.26V261.02Z" fill="#AB7F65"/>
<mask id="mask1_1456_13044" style="mask-type:luminance" maskUnits="userSpaceOnUse" x="119" y="219" width="57" height="43">
<path d="M119.26 261.02H175.04V219.99H119.26V261.02Z" fill="white"/>
</mask>
<g mask="url(#mask1_1456_13044)">
<path d="M119.04 249.74C118.4 266.19 118.3 284.66 121.38 284.99C123.48 285.21 126.28 276.91 127.68 272.75C137.88 242.4 136.13 209.06 132 208.75C128.85 208.52 124.11 227.54 122.87 242.21C121.82 254.68 123 267.61 124.39 267.66C125.3 267.66 126.78 262.16 129.27 236.92" stroke="#8C6254" stroke-width="0.75" stroke-miterlimit="10"/>
<path d="M177.07 246.63C177.99 233.63 178.41 219.07 175.33 218.77C173.23 218.57 170.33 225.1 168.83 228.37C158.11 252.21 159.29 278.55 163.41 278.83C166.56 279.05 171.63 264.08 173.11 252.52C174.37 242.68 173.41 232.46 172.03 232.41C171.12 232.41 169.54 236.72 166.62 256.62" stroke="#8C6254" stroke-width="0.75" stroke-miterlimit="10"/>
<path d="M125.02 288.85C129.9 282.92 136.02 274.02 138.83 262.85C141.77 251.31 139.88 242.75 139 237.01C137.18 225.09 137 207.92 145.06 185.64" stroke="#8C6254" stroke-width="0.75" stroke-miterlimit="10"/>
<path d="M178.35 201.78C170.151 209.129 163.124 217.688 157.51 227.16C154.185 232.646 151.678 238.589 150.07 244.8C147.49 255.28 149.47 260.43 149.07 267.59C148.69 275.02 145.72 285.71 133.39 298.73" stroke="#8C6254" stroke-width="0.75" stroke-miterlimit="10"/>
<path d="M182.62 205.57C165.62 218.89 159.41 230.62 156.78 238.22C153.78 246.78 153.72 255.22 153.67 259C153.49 272.76 157.13 276.07 155.29 284.45C154.06 290.07 150.29 298.31 138.03 307.96" stroke="#8C6254" stroke-width="0.75" stroke-miterlimit="10"/>
<path d="M129.94 295.83C134.274 291.165 137.669 285.709 139.94 279.76C144.52 267.23 140.22 259.13 144.8 240.12C145.3 238.04 145.39 237.96 145.8 236.23C148.29 224.71 146.3 218.23 146.36 211.7C146.45 200.3 152.77 187.53 157.47 187.62C161.76 187.7 167.14 198.5 164.04 208.62C161.99 215.31 156.17 221.92 153.62 221.62C150.82 221.31 151.89 212.77 152.62 209.21C153.88 202.72 157.16 195.98 158.62 196.1C159.33 196.1 159.93 197.8 159.29 205.24" stroke="#8C6254" stroke-width="0.75" stroke-miterlimit="10"/>
</g>
<path d="M119.26 219.99C119.26 220.89 131.75 221.62 147.15 221.62C162.55 221.62 175.04 220.89 175.04 219.99C175.04 219.09 162.56 218.36 147.15 218.36C131.74 218.36 119.26 219.09 119.26 219.99Z" fill="#8C6254"/>
<g style="mix-blend-mode:multiply" opacity="0.64">
<path d="M144.64 218.48H128.37V261.01H144.64V218.48Z" fill="#A4B3DE"/>
</g>
<path d="M68.2199 261.02H135.94V211.21H68.2199V261.02Z" fill="#AB7F65"/>
<mask id="mask2_1456_13044" style="mask-type:luminance" maskUnits="userSpaceOnUse" x="68" y="211" width="68" height="51">
<path d="M68.2199 261.02H135.94V211.21H68.2199V261.02Z" fill="white"/>
</mask>
<g mask="url(#mask2_1456_13044)">
<path d="M67.95 247.33C67.18 267.33 67.05 289.72 70.8 290.12C73.35 290.39 76.74 280.31 78.44 275.26C90.82 238.42 88.7 197.95 83.69 197.58C79.87 197.31 74.11 220.4 72.61 238.21C71.33 253.35 72.77 269.05 74.45 269.1C75.55 269.1 77.35 262.42 80.38 231.79" stroke="#8C6254" stroke-width="0.75" stroke-miterlimit="10"/>
<path d="M138.41 243.55C139.52 227.8 140.03 210.09 136.29 209.73C133.74 209.49 130.18 217.41 128.39 221.38C115.39 250.32 116.82 282.3 121.82 282.64C125.64 282.91 131.82 264.74 133.6 250.7C135.13 238.76 133.96 226.35 132.28 226.28C131.18 226.28 129.28 231.52 125.72 255.67" stroke="#8C6254" stroke-width="0.75" stroke-miterlimit="10"/>
<path d="M75.21 294.81C81.14 287.61 88.53 276.81 91.98 263.22C95.55 249.22 93.25 238.81 92.19 231.84C89.98 217.38 89.82 196.53 99.54 169.49" stroke="#8C6254" stroke-width="0.75" stroke-miterlimit="10"/>
<path d="M139.9 189.1C126.9 201.1 119.29 211.8 114.61 219.91C110.589 226.577 107.557 233.792 105.61 241.33C102.48 254.05 104.89 260.33 104.45 268.99C103.99 277.99 100.39 290.99 85.45 306.8" stroke="#8C6254" stroke-width="0.75" stroke-miterlimit="10"/>
<path d="M145.15 193.7C124.55 209.87 116.96 224.11 113.77 233.34C110.18 243.73 110.05 253.93 109.99 258.57C109.78 275.27 114.19 279.29 111.99 289.47C110.49 296.29 105.92 306.3 90.99 318" stroke="#8C6254" stroke-width="0.75" stroke-miterlimit="10"/>
<path d="M81.1799 303.27C88.3599 295.27 91.6799 288.44 93.3899 283.77C98.9499 268.55 93.7199 258.72 99.2899 235.65C99.8999 233.13 100.01 233.03 100.46 230.93C103.46 216.93 101.07 209.1 101.14 201.14C101.26 187.3 108.92 171.81 114.63 171.91C119.84 172.01 126.37 185.12 122.63 197.41C120.14 205.52 113.08 213.55 109.97 213.21C106.58 212.84 107.87 202.47 108.71 198.15C110.24 190.27 114.22 182.09 116.02 182.23C116.88 182.3 117.62 184.3 116.84 193.32" stroke="#8C6254" stroke-width="0.75" stroke-miterlimit="10"/>
</g>
<path d="M102.08 213.19C120.78 213.19 135.94 212.304 135.94 211.21C135.94 210.116 120.78 209.23 102.08 209.23C83.3796 209.23 68.22 210.116 68.22 211.21C68.22 212.304 83.3796 213.19 102.08 213.19Z" fill="#8C6254"/>
<path d="M205.719 102.304L67.9536 174.571C67.1319 175.002 66.8152 176.018 67.2462 176.839L70.3911 182.835C70.8221 183.656 71.8376 183.973 72.6593 183.542L210.425 111.274C211.247 110.843 211.564 109.828 211.133 109.006L207.988 103.011C207.557 102.189 206.541 101.873 205.719 102.304Z" fill="#DAD6BD"/>
<path d="M133.25 189.18C120.25 181.98 103.38 167.18 99.58 163.81C99.3472 163.603 99.0569 163.472 98.7478 163.435C98.4387 163.397 98.1254 163.455 97.85 163.6L83.4 171.18C83.0643 171.352 82.8047 171.643 82.6717 171.996C82.5386 172.349 82.5416 172.739 82.68 173.09C86.25 181.78 87.68 203.94 88.16 211.73H106.7C120.43 206.46 130.42 195.49 133.7 191.52C133.846 191.345 133.951 191.139 134.008 190.919C134.065 190.698 134.072 190.467 134.029 190.243C133.986 190.02 133.894 189.808 133.759 189.624C133.624 189.44 133.45 189.289 133.25 189.18Z" fill="#969696"/>
<path d="M100.931 156.15L76.9237 168.744C76.4688 168.983 76.2935 169.545 76.5321 170L81.2192 178.935C81.4578 179.39 82.02 179.565 82.4748 179.326L106.482 166.733C106.937 166.494 107.112 165.932 106.874 165.477L102.187 156.542C101.948 156.087 101.386 155.912 100.931 156.15Z" fill="#CD2B35"/>
<path d="M89.0701 211.33L119.26 181.5C115.69 178.89 112.26 176.16 109.26 173.69L87.8501 194.84C88.5401 201.85 88.9201 208.43 89.0701 211.33Z" fill="#B5B5B5"/>
<path d="M43 261.14C42.9884 292.849 48.2954 324.336 58.7 354.29C110.02 502.4 271.7 580.86 419.78 529.54C537.21 488.86 610.84 378.8 610.78 261.14H43Z" fill="#F77F00"/>
<path d="M345.94 344.26C342.53 345.26 338.28 345.04 335.77 347.06C330.15 351.56 331.13 341.91 326.82 343.59C322.82 346.22 313.02 340.68 313.62 348.15C311.54 351.74 296.72 330.37 288.73 328.15C278.53 322.74 268.51 330.15 258.16 328.15C248.62 324.62 233.72 310.02 226.39 324.27C216.09 325.57 196.78 316.66 200.93 335.61C195.02 313.11 187.49 332.25 181.93 348.22C195.24 361.12 181.39 384.22 194.56 395.22C193.62 403.14 196.66 410.94 204.03 412.66C237.35 440.63 265.14 432.98 285.78 475.43C301.71 501.67 346.15 545.55 370.68 530.93C356.49 530.49 346.59 517.66 340.19 507.13C328.66 494.55 359.99 488.3 337.67 477.83C361.72 478.08 345.51 442.14 356.8 430.41C381.8 420.27 369.52 397.11 370.62 378.2C388.19 353.37 370.06 337.74 345.94 344.26ZM300.35 347.65C300.59 345.84 301.51 346.5 302.27 347.77C301.75 349.43 300.9 349.1 300.35 347.65Z" fill="#FCBF49"/>
<path d="M135.66 293.94C136.66 296.05 141.29 295.52 142.37 293.94C148.89 286.32 159.37 300.21 168.07 292.6C177.97 288.32 132.35 281.31 135.66 293.94Z" fill="#FCBF49"/>
<path d="M208.61 289.04C215.76 282.18 182.77 289.82 180.32 292.53C182.61 310.91 199.81 287.7 208.61 289.04Z" fill="#FCBF49"/>
<path d="M482.92 261.61C483.856 261.514 484.784 261.357 485.7 261.14H449.46C453.4 263.45 457.91 265.98 463.09 268.76C472.04 275.68 473.73 259.21 482.92 261.61Z" fill="#FCBF49"/>
<path d="M586.35 368.43C593.45 354.75 604.73 324.72 602.51 314.5C595.59 330.88 586.73 352.37 586.35 368.43Z" fill="#FCBF49"/>
<path d="M527.85 275.53C531.74 288.68 544.24 298.64 541.97 314.3C541.42 336.3 524.97 447.68 555.33 398.68C583.54 359.09 599.39 310.03 602.14 261.14H528.55C528.84 265.74 527.69 271.68 527.85 275.53Z" fill="#FCBF49"/>
<path d="M63.9101 306.16C76.2701 324.71 71.2101 306.43 64.0901 297.34C46.2301 257.56 78.7501 318.18 89.4501 330.55C101.58 340.78 115.04 331.78 125.56 338.28C132.47 341.98 141.38 338.88 147.17 345.34C152.04 351.72 171.23 361.61 175.22 350.88C177.03 348.26 185.75 348.55 178.4 344.81C151.98 360.64 158.89 319.75 140.4 324.04C127.59 331.26 133.34 308.77 130.4 301.68C115.59 300.14 124.83 333.88 107.76 319.74C98.8401 307.48 86.8401 274.74 105.65 268.33C110.13 268.7 115.4 270.21 114.13 262.33C114.62 261.91 115.13 261.52 115.56 261.16H48.6101C51.3096 276.872 56.4732 292.059 63.9101 306.16Z" fill="#FCBF49"/>
<path d="M162.61 304.3C163.61 306.84 167.49 306.07 169.4 304.95C168.57 302.1 163.23 301.43 162.61 304.3Z" fill="#FCBF49"/>
<path d="M147.43 276.31C144.322 271.668 142.007 266.541 140.58 261.14H131.91C136.69 265.43 140.98 272.61 147.43 276.31Z" fill="#FCBF49"/>
<g style="mix-blend-mode:multiply" opacity="0.64">
<path d="M415.93 473.3C273.93 522.49 119 447.3 69.81 305.3C66.6229 296.117 63.929 286.77 61.74 277.3C62.4366 304.628 67.3652 331.682 76.35 357.5C124.35 495.88 275.35 569.19 413.72 521.24C521.17 484.01 589.36 384.61 592.04 277.24C581.722 322.173 560.144 363.744 529.336 398.042C498.528 432.339 459.503 458.237 415.93 473.3Z" fill="#A4B3DE"/>
</g>
<path d="M221.69 191H182.13V261.34H221.69V191Z" fill="#D85A69"/>
<path d="M192.87 191H182.13V261.34H192.87V191Z" fill="#E48B92"/>
<path d="M221.84 191H211.1V261.34H221.84V191Z" fill="#C42E40"/>
<path d="M224.19 191H180V195.14H224.19V191Z" fill="#831926"/>
<path d="M224.19 191H180V191.89H224.19V191Z" fill="#AB6773"/>
<path d="M224.19 212.08H180V216.22H224.19V212.08Z" fill="#831926"/>
<path d="M224.19 212.08H180V212.97H224.19V212.08Z" fill="#AB6773"/>
</svg>
