<?xml version="1.0" standalone="no"?>
<!DOCTYPE svg PUBLIC "-//W3C//DTD SVG 20010904//EN"
 "http://www.w3.org/TR/2001/REC-SVG-20010904/DTD/svg10.dtd">
<svg version="1.0" xmlns="http://www.w3.org/2000/svg"
 width="360.000000pt" height="258.000000pt" viewBox="0 0 360.000000 258.000000"
 preserveAspectRatio="xMidYMid meet">

<g transform="translate(0.000000,258.000000) scale(0.100000,-0.100000)"
fill="#000000" stroke="none">
<path d="M1303 2266 l-123 -71 0 -177 0 -178 45 0 c85 0 191 -66 261 -161 l39
-53 5 -213 5 -213 123 71 122 71 -2 400 -3 399 -173 100 c-96 54 -174 99 -175
98 -1 -1 -57 -33 -124 -73z m132 6 c-3 -3 -11 0 -18 7 -9 10 -8 11 6 5 10 -3
15 -9 12 -12z m-78 -228 c107 -61 123 -76 123 -111 0 -34 -21 -29 -124 28
-108 61 -136 85 -136 116 0 36 28 29 137 -33z m239 -320 c-3 -9 -6 -117 -6
-240 0 -143 -4 -224 -10 -224 -6 0 -10 87 -10 240 0 214 2 240 16 240 11 0 14
-5 10 -16z m104 -214 c0 -120 -4 -190 -10 -190 -6 0 -10 68 -10 183 0 162 3
197 17 197 2 0 3 -85 3 -190z m-70 -25 c0 -130 -4 -205 -10 -205 -6 0 -10 75
-10 205 0 130 4 205 10 205 6 0 10 -75 10 -205z m32 -32 c0 -99 -3 -148 -11
-151 -12 -4 -17 289 -4 301 13 14 15 -5 15 -150z"/>
<path d="M2170 1989 c-39 -24 -46 -34 -51 -71 -4 -24 -5 -45 -3 -47 2 -2 19 4
37 14 64 34 68 40 65 88 l-3 44 -45 -28z"/>
<path d="M2022 1990 c0 -14 2 -19 5 -12 2 6 2 18 0 25 -3 6 -5 1 -5 -13z"/>
<path d="M2020 1947 c0 -9 10 -22 23 -28 l22 -12 -20 24 c-11 13 -21 26 -22
28 -2 2 -3 -3 -3 -12z"/>
<path d="M2077 1899 c7 -7 15 -10 18 -7 3 3 -2 9 -12 12 -14 6 -15 5 -6 -5z"/>
<path d="M691 1804 c0 -11 3 -14 6 -6 3 7 2 16 -1 19 -3 4 -6 -2 -5 -13z"/>
<path d="M1153 1697 l-121 -72 -4 -53 c-2 -30 0 -56 3 -58 6 -3 225 122 253
145 13 11 16 11 16 -1 0 -36 65 -64 76 -33 17 43 -33 110 -74 100 -20 -5 -22
-2 -18 20 3 14 2 25 -2 24 -4 0 -62 -33 -129 -72z"/>
<path d="M768 1670 c18 -11 35 -20 38 -20 3 0 20 -10 37 -22 24 -17 28 -18 18
-4 -14 17 -102 66 -118 66 -4 0 7 -9 25 -20z"/>
<path d="M1960 1650 c0 -5 5 -10 11 -10 5 0 7 5 4 10 -3 6 -8 10 -11 10 -2 0
-4 -4 -4 -10z"/>
<path d="M2011 1622 c62 -41 84 -57 91 -67 5 -6 11 -6 18 1 9 9 4 14 -17 22
-16 5 -36 16 -44 24 -16 17 -54 38 -66 38 -4 0 4 -8 18 -18z"/>
<path d="M685 1620 c3 -5 8 -10 11 -10 2 0 4 5 4 10 0 6 -5 10 -11 10 -5 0 -7
-4 -4 -10z"/>
<path d="M905 1590 c3 -5 14 -10 23 -10 15 0 15 2 2 10 -20 13 -33 13 -25 0z"/>
<path d="M1961 1584 c0 -11 3 -14 6 -6 3 7 2 16 -1 19 -3 4 -6 -2 -5 -13z"/>
<path d="M750 1586 c0 -3 14 -12 30 -21 17 -9 30 -13 30 -11 0 3 -13 12 -30
21 -16 9 -30 13 -30 11z"/>
<path d="M1214 1541 c-34 -21 -89 -53 -122 -72 l-61 -33 -3 -134 c-2 -74 0
-136 5 -139 4 -2 44 18 90 45 45 27 101 59 125 71 l42 21 -2 140 c-1 77 -5
140 -8 139 -3 0 -33 -17 -66 -38z m46 -76 c0 -7 -169 -105 -182 -105 -20 0 4
19 84 65 67 40 98 52 98 40z m-5 -35 c-9 -15 -167 -101 -178 -97 -6 2 29 26
79 55 89 51 111 61 99 42z m1 -29 c-9 -14 -169 -102 -180 -98 -5 2 30 26 80
55 88 51 111 61 100 43z m0 -30 c-10 -16 -167 -102 -178 -99 -6 2 29 27 78 56
88 51 111 61 100 43z m-15 -42 c-38 -32 -150 -91 -163 -87 -6 2 28 27 78 56
92 53 127 66 85 31z"/>
<path d="M950 1566 c0 -3 14 -12 30 -21 17 -9 30 -13 30 -11 0 3 -13 12 -30
21 -16 9 -30 13 -30 11z"/>
<path d="M730 1539 c26 -17 70 -40 70 -35 0 5 -69 46 -78 46 -4 0 0 -5 8 -11z"/>
<path d="M2001 1504 c0 -11 3 -14 6 -6 3 7 2 16 -1 19 -3 4 -6 -2 -5 -13z"/>
<path d="M2132 1485 c0 -16 2 -22 5 -12 2 9 2 23 0 30 -3 6 -5 -1 -5 -18z"/>
<path d="M810 1496 c0 -2 7 -7 16 -10 8 -3 12 -2 9 4 -6 10 -25 14 -25 6z"/>
<path d="M2010 1467 c0 -9 30 -33 68 -55 101 -59 112 -64 112 -52 0 5 -5 10
-11 10 -16 0 -131 70 -151 93 -15 16 -18 16 -18 4z"/>
<path d="M820 1456 c0 -2 8 -10 18 -17 15 -13 16 -12 3 4 -13 16 -21 21 -21
13z"/>
<path d="M992 1444 c10 -10 20 -16 22 -13 3 3 -5 11 -17 18 -21 13 -21 12 -5
-5z"/>
<path d="M690 1400 c0 -5 5 -10 11 -10 5 0 7 5 4 10 -3 6 -8 10 -11 10 -2 0
-4 -4 -4 -10z"/>
<path d="M807 1390 c3 -11 9 -17 15 -14 5 3 4 12 -3 20 -16 19 -18 18 -12 -6z"/>
<path d="M720 1386 c0 -3 9 -10 20 -16 11 -6 20 -8 20 -6 0 3 -9 10 -20 16
-11 6 -20 8 -20 6z"/>
<path d="M2520 1194 c0 -85 48 -124 155 -124 107 0 155 39 155 124 l0 49 -22
-21 c-33 -30 -71 -42 -133 -42 -62 0 -100 12 -132 42 l-23 21 0 -49z"/>
<path d="M1903 1218 c-18 -9 -20 -14 -11 -28 10 -15 16 -16 35 -7 13 6 22 17
21 25 -4 20 -18 23 -45 10z"/>
<path d="M987 1189 c7 -7 15 -10 18 -7 3 3 -2 9 -12 12 -14 6 -15 5 -6 -5z"/>
<path d="M1976 1167 c-16 -12 -16 -14 -3 -26 19 -15 61 2 54 22 -6 18 -30 19
-51 4z"/>
<path d="M1763 1138 c-25 -12 -27 -16 -14 -37 8 -12 13 -12 36 3 21 14 24 20
14 32 -6 8 -12 14 -13 13 0 0 -11 -5 -23 -11z"/>
<path d="M2063 1128 c-25 -12 -27 -16 -14 -37 8 -12 13 -12 35 2 16 11 23 23
20 32 -7 17 -11 18 -41 3z"/>
<path d="M1837 1086 c-10 -8 -15 -20 -11 -29 5 -13 10 -14 30 -5 14 7 23 18
22 26 -4 21 -20 24 -41 8z"/>
<path d="M2137 1078 c-11 -9 -14 -18 -8 -27 12 -19 51 -4 51 20 0 22 -18 25
-43 7z"/>
<path d="M1609 1047 c-14 -11 -15 -16 -4 -30 12 -16 14 -16 35 1 37 30 6 58
-31 29z"/>
<path d="M1913 1042 c-7 -4 -10 -17 -7 -29 6 -21 7 -21 30 -6 13 8 24 22 24
29 0 15 -27 18 -47 6z"/>
<path d="M1686 997 c-16 -12 -16 -14 -3 -26 12 -10 20 -10 36 1 12 7 21 18 21
25 0 17 -31 17 -54 0z"/>
<path d="M1993 998 c-18 -9 -20 -14 -11 -28 10 -15 16 -16 35 -7 13 6 22 17
21 25 -4 20 -18 23 -45 10z"/>
<path d="M2170 991 c0 -6 4 -12 8 -15 5 -3 9 1 9 9 0 8 -4 15 -9 15 -4 0 -8
-4 -8 -9z"/>
<path d="M2143 975 c-3 -9 -3 -18 -1 -21 3 -3 8 4 11 16 6 23 -1 27 -10 5z"/>
<path d="M1768 956 c-14 -10 -15 -16 -5 -29 11 -15 14 -15 36 2 13 10 21 23
17 30 -9 14 -27 14 -48 -3z"/>
<path d="M2236 927 c3 -10 9 -15 12 -12 3 3 0 11 -7 18 -10 9 -11 8 -5 -6z"/>
<path d="M2922 933 c-4 -24 -68 -73 -117 -90 -62 -21 -182 -23 -249 -4 -29 9
-64 29 -87 51 l-39 37 0 -84 c0 -67 3 -83 15 -83 11 0 15 12 15 45 0 45 0 45
23 31 78 -50 253 -59 350 -17 26 11 50 19 53 18 3 -1 5 -72 5 -157 l-1 -155
-30 -27 c-54 -50 -183 -72 -273 -47 -27 7 -37 15 -33 25 8 21 -3 17 -39 -15
-79 -69 -272 -66 -346 5 l-29 28 0 -120 c0 -107 2 -123 20 -142 35 -38 82 -55
160 -60 92 -5 149 9 195 49 35 31 35 32 35 114 l0 84 88 -6 c104 -7 170 6 227
46 60 40 66 70 62 295 -1 105 -3 186 -5 179z m-704 -529 c79 -33 153 -30 290
12 23 6 23 5 21 -52 -3 -96 -14 -120 -65 -144 -83 -41 -272 -14 -289 40 -10
32 -13 160 -3 160 5 0 25 -7 46 -16z"/>
<path d="M2234 318 c-8 -13 8 -36 29 -42 39 -10 141 -6 167 7 14 7 25 19 25
27 0 12 -21 15 -108 15 -60 0 -111 -3 -113 -7z"/>
<path d="M1847 908 c-11 -9 -14 -18 -8 -27 11 -17 51 2 51 24 0 18 -20 19 -43
3z"/>
<path d="M2040 875 c0 -5 5 -17 10 -25 5 -8 10 -10 10 -5 0 6 -5 17 -10 25 -5
8 -10 11 -10 5z"/>
<path d="M1660 836 c0 -2 8 -10 18 -17 15 -13 16 -12 3 4 -13 16 -21 21 -21
13z"/>
<path d="M1870 826 c0 -2 7 -7 16 -10 8 -3 12 -2 9 4 -6 10 -25 14 -25 6z"/>
<path d="M1910 826 c0 -2 7 -7 16 -10 8 -3 12 -2 9 4 -6 10 -25 14 -25 6z"/>
<path d="M2765 544 c-41 -16 -152 -15 -187 1 -14 5 -18 2 -18 -13 0 -17 10
-23 56 -32 83 -18 194 6 194 41 0 10 -1 19 -2 18 -2 0 -21 -7 -43 -15z"/>
</g>
</svg>
